<!DOCTYPE svg PUBLIC "-//W3C//DTD SVG 1.1//EN" "http://www.w3.org/Graphics/SVG/1.1/DTD/svg11.dtd">
<!-- Uploaded to: SVG Repo, www.svgrepo.com, Transformed by: SVG Repo Mixer Tools -->
<svg height="800px" width="800px" version="1.1" id="Layer_1" xmlns="http://www.w3.org/2000/svg" xmlns:xlink="http://www.w3.org/1999/xlink" viewBox="0 0 512 512" xml:space="preserve" fill="#000000">
<g id="SVGRepo_bgCarrier" stroke-width="0"/>
<g id="SVGRepo_tracerCarrier" stroke-linecap="round" stroke-linejoin="round"/>
<g id="SVGRepo_iconCarrier"> <path style="fill:#2acba3;" d="M256,12.147C233.808,4.327,209.358,0,183.695,0C82.49,0,0.151,67.366,0.151,150.172 c0,44.829,24.773,87.556,66.743,115.933v84.297c0,6.752,4.06,12.837,10.301,15.418c6.129,2.547,13.349,1.212,18.188-3.615 l63.261-63.261c11.78,1.335,19.189-5.829,20.168-14.528c4.605-40.813,35.763-73.762,77.188-91.705 c27.71-12.003,60.002-17.286,92.017-13.716c9.133,1.057,17.398-5.551,18.443-14.695c0.523-4.55,0.779-9.3,0.779-14.127 C367.239,88.357,321.364,35.151,256,12.147z"/> <path style="fill:#35b181;" d="M367.239,150.172c0,4.828-0.256,9.578-0.779,14.127c-1.046,9.144-9.311,15.751-18.443,14.695 c-32.014-3.571-64.307,1.713-92.017,13.716V12.147C321.364,35.151,367.239,88.357,367.239,150.172z"/> <path style="fill:#ffac4d;" d="M328.305,144.61c-25.774,0-50.191,4.238-72.305,11.903c-65.831,22.804-111.239,75.998-111.239,138.27 c0,61.815,45.875,115.021,111.239,138.025c22.192,7.82,46.642,12.147,72.305,12.147c8.51,0,16.908-0.467,25.073-1.391 c64.463,64.463,67.255,72.761,81.427,66.866c6.24-2.581,10.301-8.665,10.301-15.418v-84.297 c41.97-28.377,66.743-71.104,66.743-115.933C511.849,213.144,431.223,144.61,328.305,144.61z"/> <path style="fill:#ff8f33;" d="M511.849,294.782c0,44.829-24.773,87.556-66.743,115.933v84.297c0,6.752-4.06,12.837-10.301,15.418 c-14.172,5.896-16.964-2.403-81.427-66.866c-8.165,0.923-16.563,1.39-25.073,1.39c-25.663,0-50.113-4.327-72.305-12.147V156.513 c22.114-7.664,46.531-11.903,72.305-11.903C431.223,144.61,511.849,213.144,511.849,294.782z"/> </g>
</svg>